<svg xmlns="http://www.w3.org/2000/svg" xml:space="preserve" width="792.30658" height="798.69598" x="0px" y="0px" viewBox="0 0 194.65388 196.22363"><g stroke-miterlimit="10"><path fill="#4891ff" d="M396.67 132.412c3.749 28.31 2.822 47.587 2.822 47.587s.927 19.275-2.822 47.58c-3.932 29.628-14.42 56.493-32.92 76.168l-.002.003c-19.667 18.489-46.522 28.984-76.164 32.915-28.31 3.749-47.584 2.825-47.584 2.825s-19.278.924-47.583-2.825c-29.639-3.931-56.497-14.426-76.164-32.915l-.003-.003c-18.497-19.675-28.989-46.522-32.916-76.168-3.753-28.305-2.826-47.573-2.826-47.573s-.927-19.285 2.826-47.594c3.927-29.635 14.42-56.493 32.915-76.16h.003c19.67-18.496 46.522-28.985 76.164-32.92C220.725 19.58 240 20.512 240 20.512s19.275-.93 47.584 2.822c29.639 3.931 56.497 14.42 76.164 32.919h.003c18.5 19.667 28.988 46.522 32.919 76.16" style="fill:#06f" transform="matrix(.60984 0 0 .61477 -49.036 -12.547)"/><path fill="#fff" d="M107.925 120.382c-5.305-13.458-41.948-19.613-46.453-40.861-1.085-5.215-.976-9.381-.23-14.055 2.74-16.928 17.735-23.039 36.084-23.039 14.61 0 34.78 3.536 34.78 26.188v7.304H106.38v-6.42c0-5.68-3.563-9.436-9.591-9.436-6.456 0-8.714 3.657-9.427 6.972-.241 1.182-.384 3.392.11 5.48 2.915 12.177 42.068 18.674 46.42 40.442.427 2.221 1.36 8.1.11 17.083-2.445 17.326-17.812 23.757-36.468 23.757-19.401 0-37.509-6.995-37.509-30.177l.022-8.055h27.666v10.066c0 5.713 3.924 9.447 10.391 9.447 6.862 0 9.185-3.524 10.051-6.983.472-1.956.779-5.193-.23-7.713z"/></g></svg>